<mxfile host="app.diagrams.net" modified="2020-11-06T08:24:47.874Z" agent="5.0 (Windows NT 10.0; Win64; x64) AppleWebKit/537.36 (KHTML, like Gecko) Chrome/86.0.4240.183 Safari/537.36" etag="kghEbrEQDosvtYqedWTj" version="13.9.2" type="github">
  <diagram id="-SiaKWpmM4UQLav8SEni" name="Page-1">
    <mxGraphModel dx="1422" dy="762" grid="1" gridSize="10" guides="1" tooltips="1" connect="1" arrows="1" fold="1" page="1" pageScale="1" pageWidth="827" pageHeight="1169" math="0" shadow="0">
      <root>
        <mxCell id="0" />
        <mxCell id="1" parent="0" />
        <mxCell id="eVPsMsSibWQKj6n6PsqZ-1" value="" style="rounded=1;whiteSpace=wrap;html=1;" vertex="1" parent="1">
          <mxGeometry x="363" width="120" height="60" as="geometry" />
        </mxCell>
        <mxCell id="eVPsMsSibWQKj6n6PsqZ-2" value="Start" style="text;html=1;strokeColor=none;fillColor=none;align=center;verticalAlign=middle;whiteSpace=wrap;rounded=0;" vertex="1" parent="1">
          <mxGeometry x="409" y="20" width="40" height="20" as="geometry" />
        </mxCell>
        <mxCell id="eVPsMsSibWQKj6n6PsqZ-3" value="" style="shape=parallelogram;perimeter=parallelogramPerimeter;whiteSpace=wrap;html=1;fixedSize=1;" vertex="1" parent="1">
          <mxGeometry x="339" y="160" width="150" height="60" as="geometry" />
        </mxCell>
        <mxCell id="eVPsMsSibWQKj6n6PsqZ-4" value="Utmatning&lt;br&gt;&quot;datorn har kommit på ett tal gissa&quot;" style="text;html=1;strokeColor=none;fillColor=none;align=center;verticalAlign=middle;whiteSpace=wrap;rounded=0;" vertex="1" parent="1">
          <mxGeometry x="367" y="180" width="82" height="20" as="geometry" />
        </mxCell>
        <mxCell id="eVPsMsSibWQKj6n6PsqZ-5" style="edgeStyle=orthogonalEdgeStyle;rounded=0;orthogonalLoop=1;jettySize=auto;html=1;exitX=1;exitY=0.25;exitDx=0;exitDy=0;entryX=1;entryY=0.5;entryDx=0;entryDy=0;" edge="1" parent="1" source="eVPsMsSibWQKj6n6PsqZ-4" target="eVPsMsSibWQKj6n6PsqZ-4">
          <mxGeometry relative="1" as="geometry" />
        </mxCell>
        <mxCell id="eVPsMsSibWQKj6n6PsqZ-8" value="" style="shape=parallelogram;perimeter=parallelogramPerimeter;whiteSpace=wrap;html=1;fixedSize=1;" vertex="1" parent="1">
          <mxGeometry x="360" y="260" width="120" height="70" as="geometry" />
        </mxCell>
        <mxCell id="eVPsMsSibWQKj6n6PsqZ-9" value="&lt;br&gt;Inmatning&lt;br&gt;Skriv ett tal mellan 1-100&lt;br&gt;" style="text;html=1;strokeColor=none;fillColor=none;align=center;verticalAlign=middle;whiteSpace=wrap;rounded=0;" vertex="1" parent="1">
          <mxGeometry x="380" y="280" width="54" height="20" as="geometry" />
        </mxCell>
        <mxCell id="eVPsMsSibWQKj6n6PsqZ-10" value="" style="endArrow=classic;html=1;" edge="1" parent="1">
          <mxGeometry width="50" height="50" relative="1" as="geometry">
            <mxPoint x="400" y="220" as="sourcePoint" />
            <mxPoint x="400" y="260" as="targetPoint" />
          </mxGeometry>
        </mxCell>
        <mxCell id="eVPsMsSibWQKj6n6PsqZ-11" value="" style="rhombus;whiteSpace=wrap;html=1;" vertex="1" parent="1">
          <mxGeometry x="368.5" y="350" width="103" height="100" as="geometry" />
        </mxCell>
        <mxCell id="eVPsMsSibWQKj6n6PsqZ-12" value="" style="endArrow=classic;html=1;" edge="1" parent="1" target="eVPsMsSibWQKj6n6PsqZ-11">
          <mxGeometry width="50" height="50" relative="1" as="geometry">
            <mxPoint x="390" y="330" as="sourcePoint" />
            <mxPoint x="440" y="280" as="targetPoint" />
          </mxGeometry>
        </mxCell>
        <mxCell id="eVPsMsSibWQKj6n6PsqZ-13" value="Är talet samm som datorn&lt;br&gt;har?&lt;br&gt;" style="text;html=1;strokeColor=none;fillColor=none;align=center;verticalAlign=middle;whiteSpace=wrap;rounded=0;" vertex="1" parent="1">
          <mxGeometry x="403" y="390" width="40" height="20" as="geometry" />
        </mxCell>
        <mxCell id="eVPsMsSibWQKj6n6PsqZ-15" value="" style="shape=parallelogram;perimeter=parallelogramPerimeter;whiteSpace=wrap;html=1;fixedSize=1;" vertex="1" parent="1">
          <mxGeometry x="160" y="380" width="120" height="60" as="geometry" />
        </mxCell>
        <mxCell id="eVPsMsSibWQKj6n6PsqZ-16" value="Utmattning&lt;br&gt;Talet är rätt" style="text;html=1;strokeColor=none;fillColor=none;align=center;verticalAlign=middle;whiteSpace=wrap;rounded=0;" vertex="1" parent="1">
          <mxGeometry x="210" y="400" width="40" height="20" as="geometry" />
        </mxCell>
        <mxCell id="eVPsMsSibWQKj6n6PsqZ-18" value="" style="rounded=1;whiteSpace=wrap;html=1;" vertex="1" parent="1">
          <mxGeometry x="348" y="525" width="120" height="60" as="geometry" />
        </mxCell>
        <mxCell id="eVPsMsSibWQKj6n6PsqZ-26" value="" style="endArrow=classic;html=1;entryX=1;entryY=0.25;entryDx=0;entryDy=0;" edge="1" parent="1" target="eVPsMsSibWQKj6n6PsqZ-15">
          <mxGeometry width="50" height="50" relative="1" as="geometry">
            <mxPoint x="368.5" y="400" as="sourcePoint" />
            <mxPoint x="288.5" y="400" as="targetPoint" />
          </mxGeometry>
        </mxCell>
        <mxCell id="eVPsMsSibWQKj6n6PsqZ-27" value="" style="endArrow=classic;html=1;entryX=0;entryY=0.5;entryDx=0;entryDy=0;exitX=1;exitY=0.5;exitDx=0;exitDy=0;" edge="1" parent="1" source="eVPsMsSibWQKj6n6PsqZ-11">
          <mxGeometry width="50" height="50" relative="1" as="geometry">
            <mxPoint x="490" y="330" as="sourcePoint" />
            <mxPoint x="640" y="440" as="targetPoint" />
          </mxGeometry>
        </mxCell>
        <mxCell id="eVPsMsSibWQKj6n6PsqZ-28" value="" style="endArrow=classic;html=1;entryX=0;entryY=0;entryDx=0;entryDy=0;" edge="1" parent="1" target="eVPsMsSibWQKj6n6PsqZ-18">
          <mxGeometry width="50" height="50" relative="1" as="geometry">
            <mxPoint x="160" y="440" as="sourcePoint" />
            <mxPoint x="210" y="390" as="targetPoint" />
          </mxGeometry>
        </mxCell>
        <mxCell id="eVPsMsSibWQKj6n6PsqZ-29" value="Stopp" style="text;html=1;strokeColor=none;fillColor=none;align=center;verticalAlign=middle;whiteSpace=wrap;rounded=0;" vertex="1" parent="1">
          <mxGeometry x="387" y="550" width="40" height="20" as="geometry" />
        </mxCell>
        <mxCell id="eVPsMsSibWQKj6n6PsqZ-34" value="Är talet lägre eller högre" style="rhombus;whiteSpace=wrap;html=1;" vertex="1" parent="1">
          <mxGeometry x="640" y="400" width="80" height="80" as="geometry" />
        </mxCell>
        <mxCell id="eVPsMsSibWQKj6n6PsqZ-36" value="" style="shape=parallelogram;perimeter=parallelogramPerimeter;whiteSpace=wrap;html=1;fixedSize=1;" vertex="1" parent="1">
          <mxGeometry x="520" y="330" width="120" height="60" as="geometry" />
        </mxCell>
        <mxCell id="eVPsMsSibWQKj6n6PsqZ-37" value="" style="shape=parallelogram;perimeter=parallelogramPerimeter;whiteSpace=wrap;html=1;fixedSize=1;" vertex="1" parent="1">
          <mxGeometry x="700" y="330" width="120" height="60" as="geometry" />
        </mxCell>
        <mxCell id="eVPsMsSibWQKj6n6PsqZ-38" value="Utmatning&lt;br&gt;Ditt tall är för högt" style="text;html=1;strokeColor=none;fillColor=none;align=center;verticalAlign=middle;whiteSpace=wrap;rounded=0;" vertex="1" parent="1">
          <mxGeometry x="560" y="350" width="40" height="20" as="geometry" />
        </mxCell>
        <mxCell id="eVPsMsSibWQKj6n6PsqZ-39" value="Utmatning ditt tall är för lågt" style="text;html=1;strokeColor=none;fillColor=none;align=center;verticalAlign=middle;whiteSpace=wrap;rounded=0;" vertex="1" parent="1">
          <mxGeometry x="750" y="350" width="40" height="20" as="geometry" />
        </mxCell>
        <mxCell id="eVPsMsSibWQKj6n6PsqZ-40" value="" style="endArrow=classic;html=1;entryX=1;entryY=0.25;entryDx=0;entryDy=0;" edge="1" parent="1" target="eVPsMsSibWQKj6n6PsqZ-8">
          <mxGeometry width="50" height="50" relative="1" as="geometry">
            <mxPoint x="730" y="330" as="sourcePoint" />
            <mxPoint x="780" y="280" as="targetPoint" />
          </mxGeometry>
        </mxCell>
        <mxCell id="eVPsMsSibWQKj6n6PsqZ-41" value="" style="endArrow=classic;html=1;entryX=1;entryY=0.75;entryDx=0;entryDy=0;" edge="1" parent="1" target="eVPsMsSibWQKj6n6PsqZ-8">
          <mxGeometry width="50" height="50" relative="1" as="geometry">
            <mxPoint x="550" y="330" as="sourcePoint" />
            <mxPoint x="600" y="280" as="targetPoint" />
          </mxGeometry>
        </mxCell>
        <mxCell id="eVPsMsSibWQKj6n6PsqZ-42" value="" style="endArrow=classic;html=1;" edge="1" parent="1">
          <mxGeometry width="50" height="50" relative="1" as="geometry">
            <mxPoint x="720" y="440" as="sourcePoint" />
            <mxPoint x="770" y="390" as="targetPoint" />
          </mxGeometry>
        </mxCell>
        <mxCell id="eVPsMsSibWQKj6n6PsqZ-43" value="" style="endArrow=classic;html=1;entryX=1;entryY=0.75;entryDx=0;entryDy=0;" edge="1" parent="1" target="eVPsMsSibWQKj6n6PsqZ-36">
          <mxGeometry width="50" height="50" relative="1" as="geometry">
            <mxPoint x="680" y="400" as="sourcePoint" />
            <mxPoint x="730" y="350" as="targetPoint" />
          </mxGeometry>
        </mxCell>
        <mxCell id="eVPsMsSibWQKj6n6PsqZ-45" value="" style="endArrow=classic;html=1;entryX=0.547;entryY=-0.05;entryDx=0;entryDy=0;entryPerimeter=0;exitX=0.6;exitY=1.017;exitDx=0;exitDy=0;exitPerimeter=0;" edge="1" parent="1" source="eVPsMsSibWQKj6n6PsqZ-1" target="eVPsMsSibWQKj6n6PsqZ-3">
          <mxGeometry width="50" height="50" relative="1" as="geometry">
            <mxPoint x="430" y="80" as="sourcePoint" />
            <mxPoint x="480" y="30" as="targetPoint" />
          </mxGeometry>
        </mxCell>
      </root>
    </mxGraphModel>
  </diagram>
</mxfile>
